<svg width="578" height="97" fill="#0C8" xmlns="http://www.w3.org/2000/svg">
  <path d="M186.831 74.4959C190.831 74.4959 193.931 73.4959 195.931 71.2959C197.931 69.0959 198.931 65.8959 198.931 61.5959V37.5959C198.931 34.5959 198.931 32.5959 199.131 31.5959H194.331L194.131 34.0959V36.8959H193.931C193.031 35.0959 191.931 33.6959 190.331 32.6959C188.687 31.6619 186.773 31.1398 184.831 31.1959C180.831 31.1959 178.131 32.4959 176.231 34.9959C174.431 37.4959 173.531 41.4959 173.531 46.7959C173.531 52.0959 174.331 55.7959 176.131 58.3959C177.831 60.7959 180.531 61.9959 184.331 61.9959C186.031 60.9959 187.331 59.5959 188.231 57.5959V63.0959C188.231 69.0959 185.931 72.0959 181.231 72.0959C183.029 72.2506 184.698 73.0936 185.889 74.449C187.08 75.8044 187.702 77.5676 187.625 79.3704C187.547 81.1733 186.777 82.8766 185.474 84.125C184.171 85.3733 182.436 86.0702 180.631 86.0702C178.827 86.0702 177.092 85.3733 175.789 84.125C174.486 82.8766 173.715 81.1733 173.638 79.3704C173.56 77.5676 174.182 75.8044 175.373 74.449C176.565 73.0936 178.233 72.2506 180.031 72.0959C179.031 71.2959 178.231 70.0959 178.031 68.7959L172.731 69.4959C174.731 70.8959 177.231 71.4959 180.331 71.4959L186.831 74.4959ZM185.831 58.3959C187.629 58.5506 189.298 59.3936 190.489 60.749C191.68 62.1045 192.302 63.8676 192.225 65.6704C192.147 67.4733 191.377 69.1766 190.074 70.425C188.771 71.6733 187.036 72.3702 185.231 72.3702C183.427 72.3702 181.692 71.6733 180.389 70.425C179.086 69.1766 178.315 67.4733 178.238 65.6704C178.16 63.8676 178.782 62.1045 179.973 60.749C181.165 59.3936 182.833 58.5506 184.631 58.3959C183.631 57.6959 182.831 56.3959 182.431 54.7959C181.85 52.6114 181.581 50.3558 181.631 48.0959C181.631 43.7959 182.231 40.7959 183.431 39.0959C184.431 37.0959 186.431 36.2959 188.931 36.2959C191.331 36.2959 193.331 37.2959 194.731 39.2959C196.263 41.9661 196.992 45.0216 196.831 48.0959C196.831 50.4959 196.531 52.4959 195.831 54.2959C195.284 55.8618 194.315 57.2461 193.031 58.2959C191.239 58.1288 189.58 57.2775 188.399 55.9189C187.218 54.5604 186.605 52.7991 186.689 51.0008C186.773 49.2026 187.546 47.5057 188.848 46.2627C190.15 45.0197 191.881 44.3262 193.681 44.3262C195.481 44.3262 197.212 45.0197 198.515 46.2627C199.817 47.5057 200.59 49.2026 200.674 51.0008C200.757 52.7991 200.145 54.5604 198.964 55.9189C197.783 57.2775 196.124 58.1288 194.331 58.2959L185.831 58.3959Z M564.059 74.301C568.059 74.301 571.159 73.301 573.159 71.101C575.159 68.901 576.159 65.701 576.159 61.401V37.401C576.159 34.401 576.159 32.401 576.359 31.401H571.559L571.359 33.901V36.701H571.159C570.259 34.901 569.159 33.501 567.559 32.501C565.915 31.4671 564.001 30.945 562.059 31.001C558.059 31.001 555.359 32.301 553.459 34.801C551.659 37.301 550.759 41.301 550.759 46.601C550.759 51.901 551.559 55.601 553.359 58.201C555.059 60.601 557.759 61.801 561.559 61.801C563.259 60.801 564.559 59.401 565.459 57.401V62.901C565.459 68.901 563.159 71.901 558.459 71.901C560.257 72.0557 561.926 72.8987 563.117 74.2541C564.308 75.6096 564.93 77.3727 564.853 79.1755C564.775 80.9784 564.005 82.6817 562.702 83.9301C561.399 85.1784 559.664 85.8753 557.859 85.8753C556.055 85.8753 554.32 85.1784 553.017 83.9301C551.714 82.6817 550.943 80.9784 550.866 79.1755C550.788 77.3727 551.41 75.6096 552.601 74.2541C553.793 72.8987 555.461 72.0557 557.259 71.901C556.259 71.101 555.459 69.901 555.259 68.601L549.959 69.301C551.959 70.701 554.459 71.301 557.559 71.301L564.059 74.301ZM563.059 58.201C564.857 58.3557 566.526 59.1987 567.717 60.5541C568.908 61.9096 569.53 63.6727 569.453 65.4755C569.375 67.2784 568.605 68.9817 567.302 70.2301C565.999 71.4784 564.264 72.1753 562.459 72.1753C560.655 72.1753 558.92 71.4784 557.617 70.2301C556.314 68.9817 555.543 67.2784 555.466 65.4755C555.388 63.6727 556.01 61.9096 557.201 60.5541C558.393 59.1987 560.061 58.3557 561.859 58.201C560.859 57.501 560.059 56.201 559.659 54.601C559.078 52.4165 558.809 50.1609 558.859 47.901C558.859 43.601 559.459 40.601 560.659 38.901C561.659 36.901 563.659 36.101 566.159 36.101C568.559 36.101 570.559 37.101 571.959 39.101C573.491 41.7713 574.22 44.8268 574.059 47.901C574.059 50.301 573.759 52.301 573.059 54.101C572.512 55.6669 571.543 57.0512 570.259 58.101C568.467 57.9339 566.808 57.0826 565.627 55.7241C564.445 54.3655 563.833 52.6042 563.917 50.8059C564 49.0077 564.774 47.3108 566.076 46.0678C567.378 44.8248 569.109 44.1313 570.909 44.1313C572.709 44.1313 574.44 44.8248 575.743 46.0678C577.045 47.3108 577.818 49.0077 577.902 50.8059C577.985 52.6042 577.373 54.3655 576.192 55.7241C575.011 57.0826 573.352 57.9339 571.559 58.101L563.059 58.201Z M156.242 60.0918V42.0918C156.242 39.0918 157.042 36.8918 158.542 35.0918C160.642 35.0918 162.242 35.7918 163.242 36.9918C164.242 38.2918 164.742 40.1918 164.742 42.7918V62.3918H169.742V41.9918C169.742 38.3918 169.042 35.5918 167.442 33.8918C165.842 32.0918 163.442 31.1918 160.142 31.1918C155.542 31.1918 152.342 33.1918 150.342 36.9918H140.342L140.442 42.7918V67.6918H145.542L156.242 60.0918Z M533.588 59.8969V41.8969C533.588 38.8969 534.388 36.6969 535.888 34.8969C537.988 34.8969 539.588 35.5969 540.588 36.7969C541.588 38.0969 542.088 39.9969 542.088 42.5969V62.1969H547.088V41.7969C547.088 38.1969 546.388 35.3969 544.788 33.6969C543.188 31.8969 540.788 30.9969 537.488 30.9969C532.888 30.9969 529.688 32.9969 527.688 36.7969H517.688L517.788 42.5969V67.4969H522.888L533.588 59.8969Z M132.097 25.3166V19.9166H126.597V25.3166H132.097ZM142.897 62.0166V58.0166H132.097V31.3166H118.097V35.3166H127.097V58.1166H115.097V62.1166H142.897V62.0166Z M509.588 25.3918V19.9918H504.088V25.3918H509.588ZM520.388 62.0918V58.0918H509.588V31.3918H495.588V35.3918H504.588V58.1918H492.588V62.1918H520.388V62.0918Z M417.47 30.7981C415.478 30.7399 413.508 31.2238 411.77 32.1981L406.77 32.1981L406.97 38.4981L406.97 74.2981L411.97 74.2981L411.97 57.4981C413.286 57.198 414.653 57.198 415.97 57.4981C417.718 58.4376 419.687 58.8869 421.67 58.7981C429.07 58.7981 432.67 53.3981 432.67 42.7981C432.67 37.3981 431.87 33.4981 430.07 30.7981C428.27 28.1981 425.47 26.7981 421.67 26.7981L417.47 30.7981ZM416.17 34.7981C417.274 34.7429 418.372 34.9938 419.342 35.5232C420.313 36.0526 421.118 36.8399 421.67 37.7981C417.155 36.6976 413.2 33.9808 410.554 30.1618C407.907 26.3427 406.751 21.686 407.305 17.0725C407.859 12.459 410.085 8.20853 413.561 5.125C417.037 2.04147 421.523 0.338682 426.17 0.338682C430.816 0.338683 435.302 2.04147 438.778 5.125C442.254 8.20853 444.48 12.459 445.034 17.0725C445.588 21.686 444.433 26.3427 441.786 30.1618C439.139 33.9808 435.184 36.6976 430.67 37.7981C430.67 42.0981 430.17 45.0981 428.97 47.0981C427.97 49.0981 425.97 50.0981 423.47 50.0981C420.67 50.0981 418.67 49.0981 417.37 47.1981C416.07 45.2981 415.37 42.3981 415.37 38.2981C415.154 35.008 415.845 31.7218 417.37 28.7981C418.77 26.7981 420.77 25.7981 423.57 25.7981L416.17 34.7981Z M98.1532 61.512C96.4151 62.4863 99.945 24.2645 97.9532 24.2063H89.6439L89.6438 20.1336H102.953V57.4538H113.747V61.512H98.1532Z M360.669 62.7159C365.069 62.7159 368.669 61.5159 370.869 58.7159C373.269 56.0159 374.369 52.1159 374.369 46.9159C374.369 41.6159 373.369 37.6159 371.069 34.9159C368.769 32.3159 365.369 31.0159 360.869 31.0159C362.194 30.8095 363.544 30.8095 364.869 31.0159C362.369 33.7159 361.169 37.6159 361.169 43.0159C361.169 48.0159 362.369 52.0159 364.669 54.7159C367.069 57.5159 370.369 58.7159 374.769 58.7159L360.669 62.7159ZM360.669 59.1159C357.869 59.1159 355.869 58.1159 354.469 56.0159C353.169 53.9159 352.469 50.9159 352.469 47.0159C352.469 43.0159 353.169 39.9159 354.469 37.9159C355.869 35.9159 357.969 34.8159 360.969 34.8159C363.769 34.8159 365.969 35.8159 367.069 37.8159C368.369 39.8159 369.069 42.8159 369.069 46.8159C369.069 50.8159 368.369 54.0159 367.069 56.0159C365.669 58.0159 363.569 59.0159 360.669 59.0159V59.1159Z M316.098 58.532C322.398 58.532 326.998 55.132 329.798 48.132L325.298 46.332C324.298 49.032 322.898 51.032 321.298 52.332C321.814 50.6892 322.852 49.2598 324.255 48.2613C325.658 47.2629 327.348 46.7501 329.069 46.801C330.79 46.852 332.448 47.4637 333.789 48.5433C335.131 49.6229 336.082 51.1111 336.5 52.7816C336.918 54.452 336.778 56.2131 336.103 57.7969C335.427 59.3807 334.253 60.7004 332.758 61.5552C331.263 62.4101 329.53 62.7532 327.823 62.5324C326.115 62.3115 324.526 61.5389 323.298 60.332C323.298 55.232 323.998 51.332 325.598 48.932C326.361 47.7306 327.43 46.7545 328.696 46.1041C329.961 45.4537 331.378 45.1526 332.798 45.232C334.798 45.232 336.398 45.932 337.798 47.132C339.377 48.4483 340.554 50.1804 341.198 52.132L345.898 50.332C343.498 44.032 339.098 40.832 332.698 40.832C322.698 40.832 317.598 47.332 317.598 60.432C317.598 66.832 318.898 71.732 321.598 75.132C324.198 78.532 328.098 80.132 332.998 80.132L316.098 58.532Z M272.8 62.1918V35.3918H286.7V31.3918H272.7V31.0918C272.7 29.3918 272.9 27.9918 273.4 26.9918C273.9 25.9918 274.6 25.2918 275.6 24.8918C276.6 24.3918 278.1 24.1918 280 24.1918V20.0918H279.4C275.2 20.0918 272.2 20.8918 270.4 22.4918C268.5 24.1918 267.6 26.8918 267.6 30.7918V31.4918H260.2V35.4918H267.5V62.0918H272.6L272.8 62.1918Z M253.721 57.9301C258.421 57.9301 262.021 56.3301 264.521 52.9301C267.281 48.5425 268.609 43.4055 268.321 38.2301C263.541 39.7676 258.4 39.7676 253.621 38.2301C251.221 35.0301 247.621 33.2301 243.021 33.2301C238.221 33.2301 234.621 35.0301 232.021 38.2301C236.821 36.8301 242.021 36.8301 246.721 38.2301C246.721 44.8301 248.021 49.7301 250.521 53.1301C252.821 56.5301 256.521 58.1301 261.121 58.1301L253.721 57.9301ZM253.721 53.7301C251.021 53.7301 248.721 52.3301 247.321 49.7301C252.959 51.1339 257.889 54.5519 261.181 59.3396C264.474 64.1274 265.901 69.9542 265.194 75.7216C264.487 81.4889 261.694 86.7983 257.342 90.6489C252.991 94.4994 247.381 96.625 241.571 96.625C235.76 96.625 230.15 94.4994 225.799 90.6489C221.447 86.7983 218.655 81.4889 217.948 75.7216C217.24 69.9542 218.667 64.1274 221.96 59.3396C225.252 54.5519 230.182 51.1339 235.821 49.7301C235.821 39.6301 238.821 34.6301 244.721 34.6301C250.521 34.6301 253.421 39.6301 253.421 49.6301C253.421 54.6301 252.721 58.6301 251.421 61.2301C249.809 60.7497 248.425 59.7053 247.52 58.288C246.615 56.8707 246.251 55.1751 246.494 53.5113C246.737 51.8475 247.57 50.3266 248.842 49.2269C250.114 48.1271 251.739 47.5219 253.421 47.5219C255.102 47.5219 256.727 48.1271 257.999 49.2269C259.271 50.3266 260.105 51.8475 260.347 53.5113C260.59 55.1751 260.226 56.8707 259.321 58.288C258.417 59.7053 257.032 60.7497 255.421 61.2301L253.721 53.7301Z M41.6773 62.8088C46.7729 62.8088 52.3177 60.6206 54.1773 55.5088L49.6773 54.2088C53.8556 48.7371 61.7637 53.1248 60.5532 59.3314C59.3325 65.5903 50.3224 65.8022 46.8773 61.2088C45.3773 59.2088 44.6925 51.4563 44.6925 47.9563H54.9925C54.9925 40.7942 53.6231 31.0373 41.4773 31.0373C37.1773 31.0373 30.8484 37.6088 28.5484 40.3088C32.2484 38.9088 39.0773 38.9088 42.7773 40.3088C42.2185 49.0304 46.698 56.5088 56.6773 56.5088L41.6773 62.8088ZM33.1773 44.0088C33.1773 31.2679 49.8463 32.4928 49.8463 46.5088H27.7615L33.1773 44.0088Z M83.3869 43.9827C85.4439 43.9827 88.2942 48.3034 88.2942 48.3034C88.2942 42.9034 87.2942 38.8034 84.8942 36.1034C82.5942 33.4034 79.1942 32.1034 74.8942 32.1034C70.5942 32.1034 62.1794 35.6489 62.267 43.9827L62.1405 48.0301C62.3428 63.3813 77.4917 59.7648 78.7318 54.2271V47.8739H54.7634L54.8006 43.9827H83.3869ZM62.1794 33.3139C67.2588 31.2274 76.2116 31.1831 77.0942 42.3034H57.1719C57.9189 37.895 59.666 35.147 62.1794 33.3139Z M445.536 62.6918C447.836 62.6918 449.736 62.1918 451.336 61.2918C453.1 60.2384 454.497 58.6671 455.336 56.7918H460.236C460.236 55.9918 460.036 54.0918 460.036 50.9918V31.3918H455.136V49.1918C455.136 52.1918 454.436 54.5918 453.136 56.1918C451.356 55.891 449.754 54.9323 448.647 53.5059C447.541 52.0795 447.01 50.2894 447.161 48.4904C447.312 46.6914 448.134 45.0148 449.462 43.7928C450.791 42.5708 452.531 41.8925 454.336 41.8925C456.141 41.8925 457.881 42.5708 459.21 43.7928C460.539 45.0148 461.36 46.6914 461.511 48.4904C461.662 50.2894 461.131 52.0795 460.025 53.5059C458.918 54.9323 457.316 55.891 455.536 56.1918C453.136 56.1918 451.536 55.5918 450.536 54.4918C449.536 53.3918 449.136 51.2918 449.136 48.3918V31.3918H444.136V51.7918C444.136 55.6918 444.836 58.4918 446.436 60.0918C447.936 61.7918 450.436 62.6918 453.736 62.6918H445.536Z M484.072 57.4918V62.4918L483.972 62.5918C480.872 62.5918 478.572 61.8918 477.072 60.5918C476.422 60.0285 475.904 59.3337 475.525 58.4912C473.705 58.4759 472.451 58.1736 471.672 57.4918C470.872 56.6918 470.472 55.4918 470.472 54.0918V35.3918H470.072V31.3918H465.472L467.072 23.3918H470.472V31.3918H482.772V35.3918H474.772V54.3918C474.772 56.0352 475.029 57.3895 475.525 58.4912C475.573 58.4916 475.623 58.4918 475.672 58.4918C478.072 58.4918 481.072 58.1918 484.072 57.4918Z M394.459 31.9209C392.695 32.9744 392.161 34.8166 391.321 36.6919L387.152 36.6918C387.452 37.4918 387.452 39.6918 387.452 43.2918L387.452 62.1918L392.19 62.1919L392.19 44.3919C392.19 41.3919 393.587 38.9919 394.987 37.3919C396.761 37.7045 398.353 38.6705 399.449 40.0993C400.546 41.528 401.067 43.3158 400.91 45.1099C400.753 46.904 399.929 48.5742 398.602 49.7909C397.274 51.0076 395.538 51.6825 393.737 51.6825C391.936 51.6825 390.201 51.0076 388.873 49.7909C387.545 48.5742 386.722 46.904 386.565 45.1099C386.408 43.3158 386.929 41.528 388.025 40.0993C389.122 38.6705 390.714 37.7045 392.487 37.3919C394.887 37.3919 396.487 37.9919 397.487 39.0919C398.487 40.1919 399.331 39.7919 399.331 42.6919L399.331 62.1919L404.331 62.1919L404.331 41.7919C404.331 28.365 396.684 30.5918 394.459 31.9209Z M380.223 59.4918L380.223 41.4918C380.223 38.4918 381.023 36.2918 382.523 34.4918C384.623 34.4918 385.988 35.1918 386.988 36.3918L391.321 36.3918C390.152 28.9668 382.145 29.0685 379.564 36.3918L375.425 31.4919L375.525 37.2919L375.525 62.1919L380.625 62.1919L380.223 59.4918Z M5.95031 46.7918V62.1918H0.550308V23.8918H22.8503V28.3918H5.95031V42.3918H21.9503V46.7918H5.95031Z"/>
</svg>
